<?xml version="1.0" standalone="no"?>
<!DOCTYPE svg PUBLIC "-//W3C//DTD SVG 20010904//EN"
 "http://www.w3.org/TR/2001/REC-SVG-20010904/DTD/svg10.dtd">
<svg version="1.0" xmlns="http://www.w3.org/2000/svg"
 width="600.000000pt" height="600.000000pt" viewBox="0 0 600.000000 600.000000"
 preserveAspectRatio="xMidYMid meet">

<g transform="translate(0.000000,600.000000) scale(0.100000,-0.100000)"
fill="#000000" stroke="none">
<path d="M2967 5385 c-143 -50 -172 -243 -53 -341 34 -27 37 -35 52 -129 18
-113 14 -205 -10 -257 -16 -34 -18 -35 -127 -56 -61 -12 -135 -30 -165 -41
l-55 -18 -19 24 c-28 36 -43 89 -36 131 20 129 21 119 -17 157 -48 48 -95 49
-143 1 -61 -61 -38 -138 52 -176 45 -20 88 -78 100 -136 5 -27 1 -31 -53 -63
-32 -19 -86 -54 -121 -78 -35 -23 -73 -43 -84 -43 -63 0 -160 80 -222 183 -31
53 -35 65 -34 130 2 129 -63 206 -181 215 -168 12 -269 -172 -170 -308 41 -56
99 -81 181 -79 69 3 98 -8 181 -68 59 -44 114 -114 127 -164 10 -37 9 -41 -45
-119 -58 -82 -70 -89 -119 -70 -40 15 -106 80 -106 104 0 51 -67 99 -123 89
-73 -14 -104 -124 -49 -175 38 -36 59 -41 113 -27 59 15 115 1 160 -39 l30
-27 -30 -77 c-17 -42 -31 -81 -31 -87 0 -15 -45 -24 -84 -18 -61 10 -106 35
-127 72 -43 72 -124 83 -173 24 -81 -95 34 -218 139 -149 39 26 116 26 173 0
l43 -20 -6 -57 c-4 -32 -14 -66 -23 -76 -26 -29 -117 -50 -196 -44 -104 7
-164 31 -209 82 -71 82 -189 99 -264 38 -60 -48 -76 -77 -81 -142 -3 -47 0
-69 17 -104 61 -127 239 -144 328 -32 69 87 298 113 395 44 22 -16 28 -28 28
-59 0 -21 12 -82 26 -136 l25 -99 -28 -22 c-66 -53 -234 -83 -264 -47 -52 63
-188 72 -256 18 -92 -73 -108 -199 -36 -285 58 -69 154 -87 239 -44 52 26 104
91 104 131 0 43 115 114 214 133 67 12 81 6 115 -53 16 -29 52 -82 80 -119 28
-36 51 -75 51 -85 0 -48 -94 -154 -184 -207 -39 -23 -58 -27 -129 -28 -73 -2
-89 -6 -125 -30 -105 -69 -112 -238 -12 -315 66 -51 165 -54 233 -6 59 42 81
93 82 184 0 57 6 85 22 116 35 65 109 141 168 169 l53 27 51 -38 c59 -44 63
-63 25 -119 -35 -52 -64 -74 -96 -75 -16 0 -42 -12 -60 -29 -47 -41 -47 -101
0 -142 36 -32 69 -36 110 -15 41 21 56 56 48 112 -7 57 16 117 62 156 l32 26
87 -38 c49 -20 96 -40 106 -43 25 -9 22 -73 -5 -127 -16 -30 -36 -51 -63 -65
-95 -48 -67 -185 37 -185 79 0 123 84 82 157 -32 55 13 191 62 186 106 -11
171 -25 181 -39 20 -28 36 -125 29 -184 -12 -99 -36 -159 -84 -204 -54 -50
-72 -89 -72 -159 0 -105 83 -187 189 -187 87 0 146 37 182 115 37 81 17 167
-56 233 -34 31 -48 53 -64 107 -25 81 -27 183 -5 247 15 45 16 46 67 53 101
13 188 35 282 70 89 34 96 35 124 21 60 -32 130 -150 152 -258 9 -46 9 -60 -5
-86 -18 -35 -21 -117 -5 -159 14 -38 67 -92 108 -109 46 -19 108 -17 156 5
178 82 140 333 -56 372 -54 11 -68 19 -115 66 -61 61 -112 152 -121 219 -6 44
-4 47 33 77 21 18 60 51 85 74 25 24 53 43 63 43 18 0 92 -63 108 -94 6 -11
12 -40 13 -63 3 -78 70 -120 139 -88 41 20 61 61 52 109 -9 49 -47 76 -106 76
-56 0 -122 42 -146 93 -16 32 -15 33 37 110 29 42 60 77 68 77 28 0 236 -106
274 -139 25 -22 37 -42 37 -59 0 -47 40 -112 87 -142 55 -35 101 -44 155 -30
91 25 148 98 148 190 0 152 -146 240 -288 173 -77 -36 -269 32 -336 119 l-25
33 19 69 c11 38 27 107 36 154 17 82 18 85 53 100 49 21 171 20 246 -2 46 -14
70 -28 100 -61 52 -56 98 -78 160 -78 223 0 269 310 56 382 -75 25 -136 6
-207 -64 -61 -62 -94 -75 -212 -82 -78 -5 -165 8 -177 27 -3 4 -12 54 -20 110
-8 56 -17 106 -20 110 -2 4 6 16 18 27 74 69 274 118 308 77 24 -30 87 -54
139 -54 92 0 165 57 190 148 14 54 5 100 -30 155 -87 137 -298 104 -349 -54
-21 -66 -169 -159 -267 -167 l-51 -4 -36 77 c-21 42 -37 81 -37 86 0 17 62 77
98 95 22 10 56 17 82 16 58 -3 97 14 115 49 23 44 19 85 -14 121 -25 28 -36
33 -76 33 -40 0 -51 -5 -76 -33 -19 -21 -29 -43 -29 -63 0 -56 -55 -122 -123
-148 -23 -9 -30 -4 -91 69 -36 44 -66 87 -66 97 0 49 85 133 134 133 66 0 126
52 126 110 0 29 -27 77 -49 90 -11 5 -38 10 -61 10 -33 0 -48 -6 -71 -30 -26
-26 -29 -35 -28 -84 2 -46 -3 -64 -27 -103 -17 -27 -44 -55 -63 -65 -34 -17
-34 -17 -77 13 -57 39 -64 54 -54 111 13 67 51 136 110 201 44 49 58 57 106
67 103 22 176 122 159 220 -28 166 -227 224 -339 100 -56 -62 -70 -164 -31
-217 28 -36 12 -150 -35 -243 -25 -51 -87 -120 -108 -120 -7 0 -64 15 -125 34
-62 18 -143 39 -181 47 -66 13 -70 15 -87 54 -23 51 -25 162 -4 274 14 74 20
85 55 117 107 97 85 260 -43 320 -59 27 -95 29 -150 9z m40 -1139 c65 -70 49
-160 -37 -203 -54 -28 -82 -29 -135 -3 -50 24 -75 65 -75 123 0 121 162 176
247 83z m457 4 c41 -15 106 -80 132 -133 28 -55 30 -123 3 -140 -55 -35 -193
71 -223 172 -27 91 8 132 88 101z m-1078 -421 c15 -17 19 -36 19 -98 0 -63 -5
-86 -28 -133 -92 -187 -211 -37 -127 160 37 85 95 116 136 71z m822 -64 c74
-32 112 -86 112 -163 0 -111 -115 -194 -228 -163 -59 16 -98 47 -123 99 -68
139 90 289 239 227z m697 -119 c101 -107 62 -376 -44 -299 -80 59 -105 249
-40 314 27 27 47 24 84 -15z m-1137 -236 c100 -61 94 -194 -11 -249 -170 -87
-316 151 -154 249 43 27 121 26 165 0z m788 -169 c101 -46 124 -160 48 -236
-66 -66 -170 -66 -234 0 -95 98 -23 250 120 254 14 0 43 -8 66 -18z m-758
-322 c76 -38 132 -99 132 -145 0 -39 -21 -54 -77 -54 -71 0 -187 70 -218 131
-49 93 40 130 163 68z"/>
<path d="M2114 1321 c-86 -22 -144 -94 -144 -181 0 -57 33 -124 74 -150 39
-24 110 -35 161 -26 33 7 36 10 33 39 l-3 31 -55 -3 c-67 -3 -104 21 -119 77
-26 91 31 157 125 148 50 -4 52 -3 57 22 3 15 2 30 -1 34 -12 11 -95 17 -128
9z"/>
<path d="M2405 1323 c-52 -13 -87 -39 -111 -80 -23 -38 -26 -52 -22 -113 4
-74 19 -105 72 -144 39 -30 143 -30 182 0 108 80 107 253 -1 315 -34 20 -90
30 -120 22z m84 -87 c49 -53 36 -177 -22 -201 -99 -42 -161 118 -80 207 24 26
75 23 102 -6z"/>
<path d="M2624 1305 c3 -8 28 -87 56 -175 l51 -160 49 0 48 0 56 168 c31 92
56 170 56 175 0 4 -18 7 -39 7 l-40 0 -25 -82 c-13 -46 -31 -105 -39 -133
l-14 -50 -16 55 c-8 30 -26 90 -38 133 l-22 77 -45 0 c-35 0 -43 -3 -38 -15z"/>
<path d="M2980 1145 l0 -175 40 0 40 0 0 175 0 175 -40 0 -40 0 0 -175z"/>
<path d="M3137 1313 c-4 -3 -7 -82 -7 -174 0 -164 0 -167 23 -173 65 -17 184
4 228 41 43 37 61 78 62 143 1 118 -65 170 -213 170 -48 0 -90 -3 -93 -7z
m167 -63 c31 -12 56 -58 56 -105 0 -71 -41 -114 -107 -115 l-43 0 0 115 0 115
34 0 c19 0 46 -4 60 -10z"/>
<path d="M3723 1287 c-42 -21 -51 -38 -34 -66 6 -10 13 -11 29 -2 40 21 42 16
42 -119 l0 -130 35 0 35 0 0 170 0 170 -32 -1 c-18 0 -52 -10 -75 -22z"/>
<path d="M3998 1294 c-56 -30 -76 -119 -38 -167 27 -34 76 -50 118 -38 17 5
32 6 32 1 0 -18 -62 -59 -100 -65 -36 -6 -40 -10 -40 -36 0 -25 4 -29 28 -29
71 0 147 43 176 99 39 75 27 182 -25 225 -36 30 -106 35 -151 10z m100 -56
c21 -28 24 -59 6 -79 -21 -23 -47 -24 -68 -3 -19 18 -21 65 -4 82 16 16 53 15
66 0z"/>
<path d="M3480 1105 c0 -24 2 -25 70 -25 68 0 70 1 70 25 0 24 -2 25 -70 25
-68 0 -70 -1 -70 -25z"/>
<path d="M1830 743 c-48 -18 -68 -84 -34 -117 19 -19 58 -30 80 -22 21 8 8 26
-20 26 -28 0 -46 18 -46 45 0 27 18 45 46 45 28 0 40 16 18 24 -18 7 -23 7
-44 -1z"/>
<path d="M1934 740 c-29 -12 -48 -59 -35 -93 10 -27 38 -47 66 -47 24 0 65 46
65 73 0 48 -53 85 -96 67z m51 -65 c0 -36 -3 -40 -25 -40 -27 0 -36 20 -26 61
5 19 12 25 29 22 18 -3 22 -9 22 -43z"/>
<path d="M2202 740 c-22 -9 -42 -46 -42 -76 0 -21 46 -64 68 -64 36 0 66 34
66 74 0 54 -43 85 -92 66z m54 -44 c10 -41 1 -61 -26 -61 -20 0 -26 6 -28 28
-5 40 4 57 27 57 13 0 23 -9 27 -24z"/>
<path d="M3060 743 c-23 -8 -39 -33 -33 -49 3 -8 19 -22 35 -30 32 -17 29 -34
-7 -34 -34 0 -41 -18 -10 -26 29 -7 75 18 75 41 0 8 -13 24 -30 37 -37 27 -38
38 -5 38 28 0 34 15 9 24 -9 3 -16 6 -17 5 -1 0 -9 -3 -17 -6z"/>
<path d="M3945 738 c-51 -27 -59 -75 -20 -114 17 -17 34 -24 52 -22 39 4 42
28 4 28 -24 0 -34 6 -40 23 -15 39 5 67 47 67 25 0 30 15 6 24 -21 8 -25 7
-49 -6z"/>
<path d="M2050 669 c0 -52 3 -70 13 -67 6 3 13 17 15 31 4 36 21 34 33 -3 6
-16 17 -30 25 -30 17 0 17 10 4 45 -7 18 -6 31 2 45 18 28 -6 50 -53 50 l-39
0 0 -71z m63 45 c9 -10 -4 -34 -19 -34 -8 0 -14 9 -14 20 0 19 19 27 33 14z"/>
<path d="M2320 669 c0 -52 3 -70 13 -66 7 2 12 21 12 45 0 23 2 42 5 42 3 0
15 -20 26 -43 12 -23 29 -43 38 -45 14 -3 16 7 16 67 0 56 -3 71 -15 71 -11 0
-15 -11 -15 -37 l-1 -38 -22 37 c-12 21 -30 38 -39 38 -16 0 -18 -10 -18 -71z"/>
<path d="M2486 728 c-2 -7 -11 -35 -20 -62 -20 -61 -20 -66 -2 -66 8 0 18 9
21 20 8 26 32 25 55 -2 29 -37 35 -13 14 55 -16 49 -25 63 -42 65 -12 2 -24
-3 -26 -10z m34 -48 c0 -11 -4 -20 -10 -20 -5 0 -10 9 -10 20 0 11 5 20 10 20
6 0 10 -9 10 -20z"/>
<path d="M2573 723 c3 -10 11 -37 18 -61 13 -45 32 -68 48 -58 5 4 17 30 27
59 9 28 19 58 22 65 2 6 -3 12 -12 12 -11 0 -20 -15 -28 -45 -7 -25 -15 -45
-19 -45 -3 0 -10 19 -15 42 -6 29 -15 44 -27 46 -14 3 -18 -1 -14 -15z"/>
<path d="M2710 670 c0 -56 3 -70 15 -70 12 0 15 14 15 70 0 56 -3 70 -15 70
-12 0 -15 -14 -15 -70z"/>
<path d="M2770 669 c0 -52 3 -70 13 -67 6 3 13 17 15 31 4 36 21 34 33 -3 6
-16 17 -30 25 -30 17 0 17 10 4 45 -7 18 -6 31 2 45 18 28 -6 50 -53 50 l-39
0 0 -71z m63 44 c8 -7 -11 -33 -24 -33 -5 0 -9 9 -9 20 0 19 20 27 33 13z"/>
<path d="M2890 687 c0 -77 37 -107 88 -71 18 12 22 25 22 70 0 40 -4 54 -14
54 -11 0 -16 -15 -18 -52 -3 -45 -6 -53 -23 -53 -17 0 -20 8 -23 53 -2 37 -7
52 -18 52 -10 0 -14 -13 -14 -53z"/>
<path d="M3187 733 c-14 -13 -6 -25 13 -20 10 3 24 -1 30 -8 8 -10 3 -22 -20
-48 -41 -47 -38 -57 15 -57 33 0 45 4 45 15 0 9 -9 15 -21 15 l-20 0 20 26
c24 30 27 54 9 72 -13 13 -60 16 -71 5z"/>
<path d="M3306 724 c-34 -33 -10 -124 32 -124 22 0 52 40 52 68 0 58 -49 91
-84 56z m49 -25 c9 -28 -3 -71 -18 -66 -13 4 -22 51 -13 73 8 20 24 17 31 -7z"/>
<path d="M3426 727 c-13 -10 -15 -16 -8 -21 7 -4 13 -4 14 1 1 4 4 -17 7 -47
4 -40 10 -55 21 -55 12 0 15 14 15 65 0 70 -12 84 -49 57z"/>
<path d="M3532 728 c-27 -27 -7 -78 31 -78 10 0 15 -4 12 -10 -3 -5 -15 -10
-26 -10 -11 0 -19 -7 -19 -16 0 -13 6 -15 27 -9 38 9 51 21 58 56 13 56 -46
104 -83 67z m51 -44 c-3 -8 -9 -14 -13 -14 -14 0 -22 20 -16 37 5 12 9 13 21
3 7 -6 11 -18 8 -26z"/>
<path d="M4141 723 c0 -10 8 -40 18 -68 26 -73 48 -68 77 18 21 61 21 67 5 67
-12 0 -21 -14 -30 -47 l-14 -48 -14 48 c-14 46 -44 67 -42 30z"/>
<path d="M3790 653 c0 -63 23 -71 28 -10 2 23 8 37 17 37 9 0 15 -14 17 -37 5
-55 28 -55 28 0 0 51 -12 64 -57 64 l-33 0 0 -54z"/>
<path d="M4037 692 c-23 -25 -21 -55 3 -77 32 -29 74 -10 78 35 5 54 -46 81
-81 42z m53 -37 c0 -25 -23 -35 -35 -15 -10 16 2 40 20 40 9 0 15 -9 15 -25z"/>
<path d="M3670 660 c0 -5 14 -10 30 -10 17 0 30 5 30 10 0 6 -13 10 -30 10
-16 0 -30 -4 -30 -10z"/>
</g>
</svg>
